<?xml version="1.0" encoding="UTF-8" standalone="no"?>
<!-- Created with Inkscape (http://www.inkscape.org/) -->

<svg
   width="5.6444445mm"
   height="9.847393mm"
   viewBox="0 0 20 34.892337"
   id="svg3455"
   version="1.1"
   inkscape:version="1.1 (c68e22c387, 2021-05-23)"
   sodipodi:docname="markerSvg.svg"
   inkscape:export-filename="C:\Users\roiev\source\repos\arcadie\public\images\contact\customMarker.png"
   inkscape:export-xdpi="96"
   inkscape:export-ydpi="96"
   xmlns:inkscape="http://www.inkscape.org/namespaces/inkscape"
   xmlns:sodipodi="http://sodipodi.sourceforge.net/DTD/sodipodi-0.dtd"
   xmlns="http://www.w3.org/2000/svg"
   xmlns:svg="http://www.w3.org/2000/svg"
   xmlns:rdf="http://www.w3.org/1999/02/22-rdf-syntax-ns#"
   xmlns:cc="http://creativecommons.org/ns#"
   xmlns:dc="http://purl.org/dc/elements/1.1/">
  <defs
     id="defs3457" />
  <sodipodi:namedview
     id="base"
     pagecolor="#ffffff"
     bordercolor="#666666"
     borderopacity="1.0"
     inkscape:pageopacity="0.0"
     inkscape:pageshadow="2"
     inkscape:zoom="11.313708"
     inkscape:cx="4.5078058"
     inkscape:cy="32.217553"
     inkscape:document-units="px"
     inkscape:current-layer="g3477"
     showgrid="false"
     inkscape:window-width="1920"
     inkscape:window-height="1111"
     inkscape:window-x="-9"
     inkscape:window-y="-9"
     inkscape:window-maximized="1"
     fit-margin-top="0"
     fit-margin-left="0"
     fit-margin-right="0"
     fit-margin-bottom="0"
     inkscape:pagecheckerboard="0" />
  <metadata
     id="metadata3460">
    <rdf:RDF>
      <cc:Work
         rdf:about="">
        <dc:format>image/svg+xml</dc:format>
        <dc:type
           rdf:resource="http://purl.org/dc/dcmitype/StillImage" />
      </cc:Work>
    </rdf:RDF>
  </metadata>
  <g
     inkscape:label="Layer 1"
     inkscape:groupmode="layer"
     id="layer1"
     transform="translate(-814.59595,-274.38623)">
    <g
       id="g3477"
       transform="matrix(1.1855854,0,0,1.1855854,-151.17715,-57.3976)"
       style="fill:#000000;fill-opacity:1;stroke:none">
      <path
         sodipodi:nodetypes="sscccccsscs"
         inkscape:connector-curvature="0"
         id="path4337-3"
         d="m 817.11249,282.97118 c -1.25816,1.34277 -2.04623,3.29881 -2.01563,5.13867 0.0639,3.84476 1.79693,5.3002 4.56836,10.59179 0.99832,2.32851 2.04027,4.79237 3.03125,8.87305 0.13772,0.60193 0.27203,1.16104 0.33416,1.20948 0.0621,0.0485 0.19644,-0.51262 0.33416,-1.11455 0.99098,-4.08068 2.03293,-6.54258 3.03125,-8.87109 2.77143,-5.29159 4.50444,-6.74704 4.56836,-10.5918 0.0306,-1.83986 -0.75942,-3.79785 -2.01758,-5.14062 -1.43724,-1.53389 -3.60504,-2.66908 -5.91619,-2.71655 -2.31115,-0.0475 -4.4809,1.08773 -5.91814,2.62162 z"
         style="display:inline;fill:#000000;fill-opacity:1;stroke:#ffffff;stroke-width:1;stroke-miterlimit:4;stroke-dasharray:none;stroke-opacity:1" />
      <path
         inkscape:connector-curvature="0"
         id="path4251-6-3-89-350"
         style="font-style:normal;font-variant:normal;font-weight:normal;font-stretch:normal;font-size:medium;line-height:125%;font-family:'1CamBam_Stick_2';-inkscape-font-specification:'1CamBam_Stick_2';letter-spacing:0px;word-spacing:0px;display:inline;fill:none;fill-opacity:1;stroke:#ffffff;stroke-width:0.79074858;stroke-linecap:butt;stroke-linejoin:miter;stroke-miterlimit:4.03046989;stroke-dasharray:none;stroke-opacity:1"
         d="m 826.82997,293.34495 v -4.36226 m 0,-3.27109 v -1.24984 m 0,4.57135 c 0,-0.65287 -0.10992,-1.26506 -0.32627,-1.83627 -0.22953,-0.58486 -0.53712,-1.0881 -0.91756,-1.50974 -0.38148,-0.43519 -0.82306,-0.77532 -1.32666,-1.02003 -0.51651,-0.25857 -1.06748,-0.3879 -1.65248,-0.3879 -0.58491,0 -1.129,0.12868 -1.63215,0.3879 -0.51695,0.24464 -0.96542,0.58483 -1.34639,1.02003 -0.38139,0.42182 -0.68006,0.92488 -0.89785,1.50974 -0.21581,0.57121 -0.32627,1.1834 -0.32627,1.83627 0,0.65277 0.11037,1.27174 0.32627,1.8565 0.21582,0.57135 0.51693,1.07451 0.89785,1.50978 0.38135,0.42191 0.82944,0.75484 1.34639,0.99967 0.50315,0.24463 1.04724,0.36711 1.63215,0.36711 0.585,0 1.13597,-0.1231 1.65248,-0.36711 0.5036,-0.24438 0.94569,-0.57807 1.32666,-0.99967"
         sodipodi:nodetypes="ccccccccscccscccscc" />
    </g>
  </g>
</svg>
